<svg id="Layer_1" data-name="Layer 1" xmlns="http://www.w3.org/2000/svg" viewBox="0 0 512 149.33"><title>i</title><path d="M133.74,15.73H507.31c.73,0,2,0,3,0,.79,0,1.88-.22,1.53,1.43.83,1.42-1.28,1.18-2.13,1.18-125.49,0-251.25.2-376.3-.23v-2A.64.64,0,0,1,133.74,15.73Zm-.11.6V18c124.52.44,250.93.24,375.94.24.57,0,2.32.53,2-1.07V16.8c.15-1.39-1.55-.83-2-.83H133.74C133.61,16,133.61,16.16,133.63,16.33Z" fill="#b8c8d4" fill-rule="evenodd"/><path d="M133.74,16H509.56c.46,0,2.16-.57,2,.83v.36c.3,1.6-1.44,1.07-2,1.07-125,0-251.41.2-375.94-.24V16.33C133.61,16.16,133.61,16,133.74,16Z" fill="#5583bb" fill-rule="evenodd"/><path d="M146.89,23.55a4.75,4.75,0,0,1,2.37,0Z" fill="#b8c8d4" fill-rule="evenodd"/><path d="M161.69,28.64c-1,1.14-2.42,1.91-3.55,3-3.07-3.53-13.29-5.57-16.81-1.18a4.56,4.56,0,0,0-1.07,2.72c0,1.67,1.73,2.86,2.61,3.31,2.73,1.41,7,1.75,10.43,2.85,5,1.59,9.24,2.94,8.76,9.47a8.15,8.15,0,0,1-3.2,6c-3,2.07-7.86,3.14-12.44,2.84a20.85,20.85,0,0,1-12.08-5.33A18.76,18.76,0,0,1,138,49.25c3.19,3.34,15.7,6.38,18.48.71,2.9-5.9-7-7.52-11-8.53-4.73-1.18-12.62-3.16-10.54-10,1.3-4.23,6.85-7.44,11.61-7.82C153.37,23.13,157.67,26,161.69,28.64Z" fill="#95b634" fill-rule="evenodd"/><path d="M432.34,47.36c.28-7.11,0-14.73.12-22h6V58c-.49.22-1.2-.61-1.78-1.07-8.89-7-18.37-14.29-27.48-21.2-.48,7.17-.12,15.19-.23,22.74h-5.57V24.73C413,31.82,422.54,40.06,432.34,47.36Z" fill="#95b634" fill-rule="evenodd"/><path d="M403.32,24.73V58.37C403.12,47.43,403.12,35.67,403.32,24.73Z" fill="#b8c8d4" fill-rule="evenodd"/><path d="M190.12,25a6,6,0,0,1,2.61,0Z" fill="#b8c8d4" fill-rule="evenodd"/><path d="M188.34,25.09c.16-.27.82,0,1.18-.12C189.36,25.24,188.71,25,188.34,25.09Z" fill="#b8c8d4" fill-rule="evenodd"/><path d="M372.65,25.09a5.86,5.86,0,0,1,2.6,0Z" fill="#b8c8d4" fill-rule="evenodd"/><path d="M193.32,25.09c8.34.53,15.38,3.66,18.47,8.52,2.61,4.11,2.85,11,.71,15.4-5.92,12-32.45,13.53-41.11,2.13a13.88,13.88,0,0,1-2.72-9.59,17.29,17.29,0,0,1,7.7-12.67C180.32,26.29,186,24.62,193.32,25.09Zm-15.16,9a13.63,13.63,0,0,0-3.56,5.69,9.65,9.65,0,0,0,3.68,10.54c7.91,5.76,24.79,4,29.13-3.79a11.15,11.15,0,0,0,.6-8.76,12.23,12.23,0,0,0-5.33-5.57,27.37,27.37,0,0,0-14.34-2.37C184.44,30.22,180.51,31.73,178.16,34.09Z" fill="#95b634" fill-rule="evenodd"/><path d="M314.25,25.21a13.45,13.45,0,0,1,4,0Z" fill="#b8c8d4" fill-rule="evenodd"/><path d="M370.87,25.21c.2-.27.9,0,1.3-.12C372,25.36,371.26,25.13,370.87,25.21Z" fill="#b8c8d4" fill-rule="evenodd"/><path d="M376.91,25.21c-.36-.08-1,.15-1.19-.12C376.08,25.16,376.74,24.94,376.91,25.21Z" fill="#b8c8d4" fill-rule="evenodd"/><path d="M450.57,25.21c7.51-.2,15.84-.2,23.34,0Z" fill="#b8c8d4" fill-rule="evenodd"/><path d="M372.17,25.21c9.32-.45,17,2.61,20.72,6.75,4.67,5.12,4.8,14.81.13,20.13-4.3,4.9-12.65,7.07-20.37,7-8.19-.09-15.46-3.12-19.08-8.29a13.48,13.48,0,0,1-2.37-9,16.38,16.38,0,0,1,6.63-12C361.51,27,366.57,25.47,372.17,25.21Zm-9.59,7.45c-3.47,2.34-7.65,8.26-5.08,13.86,4.48,9.82,26.8,9.56,32.32.35a10.51,10.51,0,0,0,.12-10.18c-2.88-5.07-10.69-7.51-19-6.74A18.19,18.19,0,0,0,362.57,32.66Z" fill="#95b634" fill-rule="evenodd"/><path d="M322.31,25.68A27.53,27.53,0,0,1,324.08,30c-4,0-7.55-.56-11-.36-6.6.36-11.88,4.55-13.62,9.82a9.07,9.07,0,0,0,1.42,7.71,14.91,14.91,0,0,0,9.35,5.8c4.3.84,9.28.5,14-.12,0,1.53.33,3.29,0,4.74-8.11,0-17,.46-22.62-2.61a14.37,14.37,0,0,1-7.94-12.79c0-5.23,3.19-9.35,6.28-12C304.94,25.92,313,24.48,322.31,25.68Z" fill="#95b634" fill-rule="evenodd"/><path d="M340.07,25.44c-.08,10.7.16,21.72-.12,32.22-1.94-.08-4.18.16-5.92-.11-.21-10.47-.21-21.76,0-32.21h5.68C339.88,25.32,340.05,25.3,340.07,25.44Z" fill="#95b634" fill-rule="evenodd"/><path d="M450.57,25.33H474a16.33,16.33,0,0,1,0,4.38c-6.11.07-12.55-.16-18.48.12-.27,2.68,0,5.88-.11,8.76,5.21.28,10.93,0,16.35.12.09,1.47-.16,2.61-.11,4-5.33.08-11-.16-16.12.11-.27,3.2,0,6.91-.11,10.3,5.93.36,12.67-.11,18.6.24a17.24,17.24,0,0,1,0,4.5H450.46V25.68C450.45,25.51,450.44,25.35,450.57,25.33Z" fill="#95b634" fill-rule="evenodd"/><path d="M493.93,25.44a5.78,5.78,0,0,1,2.61,0Z" fill="#b8c8d4" fill-rule="evenodd"/><path d="M509,30.53c-1.12,1-2.38,1.89-3.55,2.84-2.85-1.94-6-3.92-11.49-3.55-3.3.22-6.62,2.33-6.52,5.21,0,1.6,1.73,2.87,2.61,3.32,2.8,1.44,7,1.66,10.54,2.72,3.28,1,7.12,2.58,8.17,5.09,1.65,3.94-.16,8.6-2.37,10.3s-6,2.84-9.36,3.08A19.57,19.57,0,0,1,481.49,54c1.31-.86,2.31-2,3.67-2.85,3.34,3.36,16,6.44,18.6.48,2.44-5.59-6.41-7.07-10.19-8.05-4-1-8.56-2.2-10.54-4.74-3.82-4.89,1.87-10.43,6.15-12.2C496.07,23.8,504.57,27,509,30.53Z" fill="#95b634" fill-rule="evenodd"/><path d="M228.14,25.8c.28,9,0,18.44.12,27.59,6.12.28,12.75,0,19.07.12a23.49,23.49,0,0,1-2.25,3.91c-7.47-.08-15.24.16-22.51-.12.07-10.46-.16-21.24.12-31.5A25.23,25.23,0,0,1,228.14,25.8Z" fill="#95b634" fill-rule="evenodd"/><path d="M146.42,28.17c.24-.28,1,0,1.42-.11C147.6,28.32,146.85,28.09,146.42,28.17Z" fill="#b8c8d4" fill-rule="evenodd"/><path d="M148.55,28.05c.4.07,1.1-.16,1.3.11C149.45,28.09,148.75,28.32,148.55,28.05Z" fill="#b8c8d4" fill-rule="evenodd"/><path d="M312.59,29.83a7.43,7.43,0,0,1,3,0Z" fill="#b8c8d4" fill-rule="evenodd"/><path d="M324.2,29.71c.16,0,.1.29.12.47-.47-.07-1.26.15-1.54-.12h1.42Z" fill="#b8c8d4" fill-rule="evenodd"/><path d="M188.34,30a21,21,0,0,1,5.09,0Z" fill="#b8c8d4" fill-rule="evenodd"/><path d="M316.85,29.83a9.86,9.86,0,0,1,2.49.13A10.39,10.39,0,0,1,316.85,29.83Z" fill="#b8c8d4" fill-rule="evenodd"/><path d="M320.17,30c.59.07,1.5-.17,1.9.11C321.48,30,320.57,30.22,320.17,30Z" fill="#b8c8d4" fill-rule="evenodd"/><path d="M371,30.06a19.74,19.74,0,0,1,4.86,0Z" fill="#b8c8d4" fill-rule="evenodd"/><path d="M134.57,32.78v1.43A1.84,1.84,0,0,1,134.57,32.78Z" fill="#b8c8d4" fill-rule="evenodd"/><path d="M208.36,40.25a5.31,5.31,0,0,1,0,2.49Z" fill="#b8c8d4" fill-rule="evenodd"/><path d="M390.88,40.48a4.87,4.87,0,0,1,0,2.37Z" fill="#b8c8d4" fill-rule="evenodd"/><path d="M299.33,42.85a3.82,3.82,0,0,1,0-2.13Z" fill="#b8c8d4" fill-rule="evenodd"/><path d="M168.57,41.67V44A4.81,4.81,0,0,1,168.57,41.67Z" fill="#b8c8d4" fill-rule="evenodd"/><path d="M351.09,41.79v2.49A5.32,5.32,0,0,1,351.09,41.79Z" fill="#b8c8d4" fill-rule="evenodd"/><path d="M156.72,47.24a1.22,1.22,0,0,1,0,1.18Z" fill="#b8c8d4" fill-rule="evenodd"/><path d="M162.17,47.24a1.8,1.8,0,0,1,0,1.42Z" fill="#b8c8d4" fill-rule="evenodd"/><path d="M509.32,48.78a3.46,3.46,0,0,1,0,2Z" fill="#b8c8d4" fill-rule="evenodd"/><path d="M503.88,49a1.87,1.87,0,0,1,0,1.43Z" fill="#b8c8d4" fill-rule="evenodd"/><path d="M319.34,53.15c.16-.26.83,0,1.19-.11C320.36,53.31,319.7,53.08,319.34,53.15Z" fill="#b8c8d4" fill-rule="evenodd"/><path d="M318.75,53.15a21.45,21.45,0,0,1-5.09,0Z" fill="#b8c8d4" fill-rule="evenodd"/><path d="M312.71,57.54c.44.07,1.18-.15,1.42.11C313.7,57.58,313,57.81,312.71,57.54Z" fill="#b8c8d4" fill-rule="evenodd"/><path d="M315,57.66a25.81,25.81,0,0,1,3.91.12A23.76,23.76,0,0,1,315,57.66Z" fill="#b8c8d4" fill-rule="evenodd"/><path d="M320.65,57.77a19.85,19.85,0,0,1,3.43-.12A18.33,18.33,0,0,1,320.65,57.77Z" fill="#b8c8d4" fill-rule="evenodd"/><path d="M146.42,57.77h3.32A9.18,9.18,0,0,1,146.42,57.77Z" fill="#b8c8d4" fill-rule="evenodd"/><path d="M403.56,58.6h5.33A23.41,23.41,0,0,1,403.56,58.6Z" fill="#b8c8d4" fill-rule="evenodd"/><path d="M192.14,59.08c.2-.27.9-.05,1.3-.12C193.24,59.23,192.53,59,192.14,59.08Z" fill="#b8c8d4" fill-rule="evenodd"/><path d="M189.3,59.08h1.89A3.19,3.19,0,0,1,189.3,59.08Z" fill="#b8c8d4" fill-rule="evenodd"/><path d="M374.78,59.2c.2-.27.9,0,1.3-.12C375.88,59.35,375.17,59.12,374.78,59.2Z" fill="#b8c8d4" fill-rule="evenodd"/><path d="M371.69,59.2h2.13A3.89,3.89,0,0,1,371.69,59.2Z" fill="#b8c8d4" fill-rule="evenodd"/><path d="M493.69,59.67h3.07A7.89,7.89,0,0,1,493.69,59.67Z" fill="#b8c8d4" fill-rule="evenodd"/><path d="M133.86,68.08H509.8c.54,0,2.11-.46,1.78,1.07.26,1.68-1.46,1.07-2,1.07H136.11c-.6,0-1.07,0-1.54,0-1.37-.14-.85-.32-.94-1.78A.32.32,0,0,1,133.86,68.08Z" fill="#95b634" fill-rule="evenodd"/><path d="M133.5,68.32V70.1A2.9,2.9,0,0,1,133.5,68.32Z" fill="#b8c8d4" fill-rule="evenodd"/><path d="M511.69,68.32a2.74,2.74,0,0,1,0,1.78Z" fill="#b8c8d4" fill-rule="evenodd"/><path d="M133.5,70.22c125.78.19,252.41.19,378.19,0-.87.41-3.83.24-5.92.24C381.91,70.46,256.74,70.65,133.5,70.22Z" fill="#b8c8d4" fill-rule="evenodd"/><path d="M183.13,82.53a25.68,25.68,0,0,1-4.74,3.67c-8.22-5.78-27.19-5.08-34.7,1.18-2.86,2.39-5,7.59-2.48,11.85,5.46,9.3,28.71,8.55,37.91,3.08a33.78,33.78,0,0,1,0-5.57c-5.85-.43-12.4-.16-18.6-.24.45-1.48,1.86-3,2.84-4.38h22.51c.25,4.32,0,9.13.23,13.5-3.17,3-8.15,4.29-13.74,5.1-11.75,1.69-24.19,1.22-31.86-3.91-3.82-2.56-7.72-6.53-7.34-12.67.29-4.85,3.53-9.51,7.1-12,4.25-2.91,10.38-4.84,16.7-5.21C167.8,76.33,176.82,78.35,183.13,82.53ZM156.48,77.2a33.21,33.21,0,0,0-15.28,4.74c-3.82,2.31-7.39,6.65-7.82,11.72-.56,6.78,3.5,10.51,7.71,13.15a31.22,31.22,0,0,0,14.09,4.38c8.21.72,18.37-.07,24.87-2.37,1.41-.5,5.39-2.06,5.8-3.43.51-1.75,0-4.48,0-6.52,0-2.33.09-4.47-.12-6.51H163.47c-.61.41-.93,1.31-1.42,2s-1.38,1.28-1.06,1.89c5.81.35,12.44-.11,18.24.24,0,1.93,0,4.38,0,5.92-4.12,2.75-10.55,3.9-17.29,4-6.52.12-13.71-.86-17.66-3.56s-6.07-8.8-2.72-13.5c6.08-8.5,27.81-9.6,36.83-3.43a32.37,32.37,0,0,0,4.51-3.43C176.31,78.41,167.08,76.47,156.48,77.2Z" fill="#b8c8d4" fill-rule="evenodd"/><path d="M182.9,82.53A32.37,32.37,0,0,1,178.39,86c-9-6.16-30.76-5.07-36.83,3.43-3.35,4.69-1.18,10.83,2.72,13.5s11.14,3.67,17.66,3.56c6.74-.12,13.17-1.28,17.29-4,0-1.54,0-4,0-5.92-5.8-.35-12.43.12-18.24-.24-.31-.62.63-1.26,1.06-1.89s.81-1.6,1.42-2h22.27c.21,2,.12,4.18.12,6.51,0,2,.51,4.77,0,6.52-.41,1.38-4.39,2.93-5.8,3.43-6.51,2.3-16.66,3.09-24.87,2.37a31.22,31.22,0,0,1-14.09-4.38c-4.21-2.64-8.27-6.37-7.71-13.15.43-5.06,4-9.41,7.82-11.72a33.21,33.21,0,0,1,15.28-4.74C167.08,76.47,176.31,78.41,182.9,82.53Z" fill="#5583bb" fill-rule="evenodd"/><path d="M200.21,77.2h7.11c.27,9,0,18.51.11,27.71,7.78.28,16.07,0,24,.12a21.2,21.2,0,0,1-3,4.38c-9.51-.08-19.34.16-28.66-.12V77.56A.6.6,0,0,1,200.21,77.2Zm-.11.59v31.39h28.42c.83-1.31,2.22-2.68,2.6-4-7.89-.08-16.11.16-23.8-.11-.27-9,0-18.44-.12-27.6h-7C200.07,77.46,200.08,77.63,200.09,77.79Z" fill="#b8c8d4" fill-rule="evenodd"/><path d="M200.21,77.44h7c.08,9.15-.15,18.63.12,27.6,6,.21,14.18,0,23.8.11-.39,1.35-1.77,2.72-2.6,4H200.09V77.79C200.08,77.63,200.07,77.46,200.21,77.44Z" fill="#5583bb" fill-rule="evenodd"/><path d="M508.25,82.53c-1.2,1.45-3.11,2.18-4.61,3.31-3.51-2.4-9.44-4.71-15.64-3.43-2.18.45-5.39,2.27-5.33,4.74.07,2.29,3.48,3.44,5.33,3.91,2.69.67,5.42.91,7.7,1.42,4.38,1,10.88,2.46,12.32,5.93a8.75,8.75,0,0,1-3,10.3c-3.77,2.4-9.85,3.51-15.39,3.2a25.06,25.06,0,0,1-8.29-2c-2.42-1-4.84-2-6.4-3.79,1.58-1,3-2.17,4.63-3.08,4,2.44,14.1,6.08,20,2.48,1.22-.74,2.74-2.49,2.25-4.5-.42-1.73-3.33-2.77-5.45-3.44-6.33-2-16.19-2.28-19.78-6.87-1.94-2.49-.87-6.22,1.19-8.29,2.58-2.6,7.54-4.64,12-5C497.74,76.85,503.51,79.92,508.25,82.53ZM489.3,77.67c-5,.39-11.2,3.34-13,7.22a5.63,5.63,0,0,0,.71,5.93c2.54,2.94,7.77,3.8,12.55,4.85,2.1.46,4.45,1,6.87,1.78,2.2.67,5,1.45,5.57,3.2.81,2.53-1.2,4.46-2.61,5.21-5.74,3-15.78.06-19.77-2.61a30.8,30.8,0,0,0-4.38,3.08c4.22,2.84,9.25,5.47,16.46,5.44,5,0,11.61-1.52,14.34-4a8.94,8.94,0,0,0,1.77-9.35c-1.53-3.37-8-4.88-12.44-5.81-2.27-.48-5.06-.85-7.57-1.54-2-.55-5.27-1.44-5.34-3.91,0-1.93,2.06-3.53,3.68-4.27,6.21-2.84,13.91.32,17.53,2.72,1.43-1,3-1.86,4.38-3C502.66,79.72,497.49,77,489.3,77.67Z" fill="#b8c8d4" fill-rule="evenodd"/><path d="M508,82.65c-1.35,1.09-3,1.95-4.38,3-3.62-2.4-11.32-5.56-17.53-2.72-1.61.74-3.73,2.34-3.68,4.27.07,2.47,3.31,3.36,5.34,3.91,2.52.68,5.3,1.06,7.57,1.54,4.4.93,10.91,2.44,12.44,5.81a8.94,8.94,0,0,1-1.77,9.35c-2.73,2.5-9.33,4-14.34,4-7.21,0-12.24-2.6-16.46-5.44a30.8,30.8,0,0,1,4.38-3.08c4,2.67,14,5.64,19.77,2.61,1.41-.75,3.42-2.68,2.61-5.21-.57-1.75-3.37-2.53-5.57-3.2-2.42-.74-4.77-1.31-6.87-1.78-4.78-1.06-10-1.92-12.55-4.85a5.63,5.63,0,0,1-.71-5.93c1.82-3.88,8-6.84,13-7.22C497.49,77,502.66,79.72,508,82.65Z" fill="#5583bb" fill-rule="evenodd"/><path d="M397.77,79.57c2.33.07,5-.16,7.11.12.28,9,0,18.44.11,27.59,7.73.28,16,0,23.92.12-.45,1.57-1.91,3.14-3,4.5-9.47-.08-19.26.16-28.54-.12v-32A.81.81,0,0,1,397.77,79.57Zm-.12.59v31.5h28.19a19,19,0,0,0,2.84-4c-7.9-.08-16.11.16-23.8-.12-.28-9,0-18.51-.12-27.72h-7C397.63,79.83,397.64,80,397.65,80.17Z" fill="#b8c8d4" fill-rule="evenodd"/><path d="M397.77,79.8h7c.08,9.21-.16,18.72.12,27.72,7.69.28,15.91,0,23.8.12a19,19,0,0,1-2.84,4H397.65V80.17C397.64,80,397.63,79.83,397.77,79.8Z" fill="#5583bb" fill-rule="evenodd"/><path d="M389.17,109.18c-1.29.34-2.53.5-3.91.83-1.21.28-2.76,1.11-3.79.94s-1.92-2-2.49-2.72c-2.26-2.72-4.85-5.91-7-8.29H356c-1.54,0-3.88-.39-5.34,0-.88.24-1.93,1.87-2.72,2.72-2,2.13-3.24,3.55-5.21,5.69-.68.74-2.05,2.46-2.73,2.6-1.06.24-2.73-.4-3.91-.59a33.56,33.56,0,0,1-3.79-.71c9.18-11.32,18.66-22.32,28.08-33.4h.23c8.49,9.45,16.61,19.23,25.11,28.78C386.92,106.37,388.39,107.53,389.17,109.18ZM381.95,101c-7.22-8.11-14.19-16.47-21.32-24.52h-.23c-8.1,9.64-16.54,19.46-24.52,29a23.72,23.72,0,0,0-3.19,4.15c2.53.31,4.92.76,7.34,1.19,2.71-2.93,5.19-5.4,7.94-8.41.86-.95,1.73-2.48,2.72-2.72,1.48-.36,3.62,0,5.34,0h16.1c3.22,3.61,6.05,7.6,9.36,11.13,2.35-.68,4.86-1.22,7.34-1.78C386.89,106.14,384.3,103.65,381.95,101Z" fill="#b8c8d4" fill-rule="evenodd"/><path d="M388.81,109.07c-2.48.56-5,1.1-7.34,1.78-3.31-3.53-6.14-7.53-9.36-11.13H356c-1.72,0-3.86-.36-5.34,0-1,.24-1.86,1.77-2.72,2.72-2.74,3-5.23,5.48-7.94,8.41-2.42-.43-4.81-.88-7.34-1.19a23.72,23.72,0,0,1,3.19-4.15c8-9.56,16.42-19.38,24.52-29h.23c7.13,8,14.1,16.41,21.32,24.52C384.3,103.65,386.89,106.14,388.81,109.07ZM360.75,85.49c-2.68,3-5.28,6.16-7.7,9.48,5.1.2,11,.2,16.11,0A117,117,0,0,0,360.75,85.49Z" fill="#5583bb" fill-rule="evenodd"/><path d="M369.15,95c-5.1.2-11,.2-16.11,0,2.42-3.32,5-6.43,7.7-9.48A117,117,0,0,1,369.15,95Zm-8.53-9.24c-2.31,3.13-5,5.88-7.23,9.11h15.4A95.85,95.85,0,0,0,360.62,85.73Z" fill="#b8c8d4" fill-rule="evenodd"/><path d="M293.91,77.79c10.57.94,28.45-2.93,31.63,5.45,1.68,4.43-.7,9.94-4.62,10.66,3,.75,5.55,1.68,6.63,4.14a9.29,9.29,0,0,1-.11,7.11c-4,8.49-22.25,4.32-33.64,5.33-.27-10.54,0-21.6-.12-32.33C293.77,78.05,293.75,77.83,293.91,77.79Zm28.9,2.49c-6.15-4.2-19.81-1.52-28.9-2.25v32.21c10.61-.94,28.63,2.88,33-4.62a9.12,9.12,0,0,0,.36-7.58c-1.18-2.56-4-3.43-7.23-4C326.49,93.11,327.48,83.47,322.81,80.28Z" fill="#b8c8d4" fill-rule="evenodd"/><path d="M320.08,94c3.22.6,6,1.47,7.23,4a9.12,9.12,0,0,1-.36,7.58c-4.41,7.5-22.43,3.68-33,4.62V78c9.1.73,22.75-1.94,28.9,2.25C327.48,83.47,326.49,93.11,320.08,94Zm-18.47-12a79.63,79.63,0,0,0,0,9.71c4.18-.75,11.47,1.21,14.81-.47,2.11-1.06,3.49-5.31,1.53-7.69-2.65-3.23-10.51-1.16-16-1.78A.79.79,0,0,0,301.61,82.06Zm-.12,14.33c.08,3.12-.16,6.55.12,9.47,5.22-.36,14.49,1.74,16.58-2.13a6.46,6.46,0,0,0,.24-5.21c-1.92-4.27-10.92-1.82-16.7-2.49A.32.32,0,0,0,301.49,96.39Z" fill="#5583bb" fill-rule="evenodd"/><path d="M302,81.82c5.48.62,13.34-1.45,16,1.78,2,2.38.58,6.63-1.53,7.69-3.34,1.68-10.63-.28-14.81.47a79.63,79.63,0,0,1,0-9.71A.79.79,0,0,1,302,81.82Zm-.24.59c.08,3-.16,6.4.12,9.24,4.38-.75,11.52,1.3,14.8-.71,1.6-1,2.72-4.07,1.54-6.52-2-4.09-10.69-1.71-16.34-2.36C301.71,82.08,301.71,82.24,301.72,82.41Z" fill="#b8c8d4" fill-rule="evenodd"/><path d="M301.72,96c5.78.67,14.78-1.78,16.7,2.49a6.46,6.46,0,0,1-.24,5.21c-2.08,3.87-11.35,1.77-16.58,2.13-.27-2.92,0-6.35-.12-9.47A.32.32,0,0,1,301.72,96Zm0,.47v9.24c5.34-.65,14.39,1.74,16.35-2.24a6.45,6.45,0,0,0,.11-5c-1.91-4-10.65-1.72-16.22-2.37A.32.32,0,0,0,301.72,96.51Z" fill="#b8c8d4" fill-rule="evenodd"/><path d="M133.5,120H509.32c1.86,0,2.7-.11,2.25,1.78-.16.69.1.63-.71.83a26.66,26.66,0,0,1-4.5,0c-124.35,0-249.19.2-373.21-.23v-2.14A.85.85,0,0,1,133.5,120Zm-.22.59V122c.69.65,1.8.35,2.6.35H509.08c.82,0,2.66.48,2.25-.83v-.24c.31-1.54-1.2-1.06-1.77-1.07H133.5A.32.32,0,0,0,133.27,120.55Z" fill="#b8c8d4" fill-rule="evenodd"/><path d="M133.5,120.19H509.56c.57,0,2.09-.46,1.77,1.07v.24c.41,1.31-1.43.83-2.25.83H135.87c-.8,0-1.9.3-2.6-.35v-1.43A.32.32,0,0,1,133.5,120.19Z" fill="#5583bb" fill-rule="evenodd"/><path d="M135.4,30.06A10.31,10.31,0,0,1,139,26.27,15.67,15.67,0,0,0,135.4,30.06Z" fill="#b8c8d4" fill-rule="evenodd"/><path d="M135.52,36.69a16.22,16.22,0,0,0,2.84,2.49A8.07,8.07,0,0,1,135.52,36.69Z" fill="#b8c8d4" fill-rule="evenodd"/><path d="M138.48,39.18a7.62,7.62,0,0,1,1.3.71A2.77,2.77,0,0,1,138.48,39.18Z" fill="#b8c8d4" fill-rule="evenodd"/><path d="M150.09,42.85a4.21,4.21,0,0,1,1.66.59A7.79,7.79,0,0,1,150.09,42.85Z" fill="#b8c8d4" fill-rule="evenodd"/><path d="M154.82,44.75a4.09,4.09,0,0,1,1.55,1.3C155.88,45.59,155.33,45.18,154.82,44.75Z" fill="#b8c8d4" fill-rule="evenodd"/><path d="M154.36,51.85a11,11,0,0,0,1.77-1.66A4.23,4.23,0,0,1,154.36,51.85Z" fill="#b8c8d4" fill-rule="evenodd"/><path d="M138.48,49.48c-.54-.67-1.09,0-1.54.36A1.94,1.94,0,0,1,138,49a2.19,2.19,0,0,0,.48.36Z" fill="#b8c8d4" fill-rule="evenodd"/><path d="M134.93,51.5a14,14,0,0,1,1.9-1.66A14.59,14.59,0,0,1,134.93,51.5Z" fill="#b8c8d4" fill-rule="evenodd"/><path d="M134.1,52.33c.64.59,1.42,1,2,1.66A9.82,9.82,0,0,1,134.1,52.33Z" fill="#b8c8d4" fill-rule="evenodd"/><path d="M158.5,55.17a16.31,16.31,0,0,0,2.25-2A6.16,6.16,0,0,1,158.5,55.17Z" fill="#b8c8d4" fill-rule="evenodd"/><path d="M159,41.43a6.58,6.58,0,0,1,2.48,2.37A8.57,8.57,0,0,0,159,41.55Z" fill="#b8c8d4" fill-rule="evenodd"/><path d="M142,35.75a3.45,3.45,0,0,1-1.3-1.42C141.15,34.82,141.59,35.29,142,35.75Z" fill="#b8c8d4" fill-rule="evenodd"/><path d="M140.85,31.48a6.32,6.32,0,0,1,3.55-3A8.73,8.73,0,0,0,140.85,31.48Z" fill="#b8c8d4" fill-rule="evenodd"/><path d="M154.12,29.23a3.9,3.9,0,0,1,1.54.83A10.68,10.68,0,0,1,154.12,29.23Z" fill="#b8c8d4" fill-rule="evenodd"/><path d="M155.77,30.06A11.14,11.14,0,0,1,158,31.72C157.24,31.2,156.5,30.64,155.77,30.06Z" fill="#b8c8d4" fill-rule="evenodd"/><path d="M158.14,31.72c.54-.45,1.1-.89,1.66-1.3A5.4,5.4,0,0,1,158.14,31.72Z" fill="#b8c8d4" fill-rule="evenodd"/><path d="M161,29.59c.13-.5,1.19-.58.83-1.18.09,0,.11.11.23.11C161.92,29.1,161.34,29.23,161,29.59Z" fill="#b8c8d4" fill-rule="evenodd"/><path d="M161.69,28.41A13.29,13.29,0,0,1,160,27.22,6.06,6.06,0,0,1,161.69,28.41Z" fill="#b8c8d4" fill-rule="evenodd"/><path d="M139,26.27a17.28,17.28,0,0,1,7.94-2.72h2.37A26.65,26.65,0,0,1,160,27.22a13.29,13.29,0,0,0,1.65,1.18h.13c.36.61-.7.68-.83,1.18-.52.15-.77.57-1.19.83-.56.41-1.12.86-1.66,1.3H158a11.14,11.14,0,0,0-2.25-1.66h-.12a3.9,3.9,0,0,0-1.54-.83,11.61,11.61,0,0,0-4.26-1.06c-.21-.28-.9,0-1.3-.11h-.71c-.44.08-1.18-.16-1.42.11a5,5,0,0,0-2,.35,6.32,6.32,0,0,0-3.55,3,2.87,2.87,0,0,0-.12,2.85,3.45,3.45,0,0,0,1.3,1.42c4.85,2.69,12.4,2.68,16.94,5.68v.12a8.57,8.57,0,0,1,2.48,2.25,11.94,11.94,0,0,1,.71,3.44v1.42a10.13,10.13,0,0,1-1.42,4.49,16.31,16.31,0,0,1-2.25,2,24.39,24.39,0,0,1-8.76,2.6h-3.32A22.29,22.29,0,0,1,136.11,54c-.59-.63-1.37-1.07-2-1.66a3.23,3.23,0,0,1,.83-.83,14.59,14.59,0,0,0,1.9-1.66h.12c.45-.37,1-1,1.54-.36,3.36,2.7,10.82,4.92,15.87,2.37a4.23,4.23,0,0,0,1.77-1.66,3,3,0,0,0,.59-1.77,1.22,1.22,0,0,0,0-1.18,1.58,1.58,0,0,0-.35-1.19,4.09,4.09,0,0,0-1.55-1.3,10.71,10.71,0,0,0-3.07-1.3,4.21,4.21,0,0,0-1.66-.59c-3.28-1.15-7.13-1.72-10.31-3a7.62,7.62,0,0,0-1.3-.71h-.12a16.22,16.22,0,0,1-2.84-2.49,9.54,9.54,0,0,1-1-2.48V32.78a13.25,13.25,0,0,1,.83-2.72A15.67,15.67,0,0,1,139,26.27Zm7.58-2.61c-4.76.38-10.31,3.59-11.61,7.82-2.08,6.79,5.81,8.77,10.54,10,4.06,1,13.92,2.63,11,8.53-2.78,5.66-15.29,2.63-18.48-.71a18.76,18.76,0,0,0-3.66,3.08,20.85,20.85,0,0,0,12.08,5.33c4.58.31,9.4-.77,12.44-2.84a8.15,8.15,0,0,0,3.2-6c.47-6.54-3.77-7.89-8.76-9.47-3.45-1.1-7.7-1.43-10.43-2.85-.88-.46-2.56-1.65-2.61-3.31a4.56,4.56,0,0,1,1.07-2.72c3.52-4.39,13.75-2.35,16.81,1.18,1.13-1,2.52-1.82,3.55-3C157.67,26,153.37,23.13,146.53,23.66Z" fill="#a4b278" fill-rule="evenodd"/><path d="M409,58.6c.36-6.39-.11-13.62.23-20V53.75C409.24,55.42,409.43,57.62,409,58.6Z" fill="#b8c8d4" fill-rule="evenodd"/><path d="M409.83,36.22a13,13,0,0,1,2,1.66A17.05,17.05,0,0,1,409.83,36.22Z" fill="#b8c8d4" fill-rule="evenodd"/><path d="M412,37.88c1.9,1.49,3.9,2.88,5.69,4.5C415.75,40.88,413.75,39.49,412,37.88Z" fill="#b8c8d4" fill-rule="evenodd"/><path d="M427.36,49.84c1.54,1.22,3.19,2.34,4.62,3.67C430.44,52.29,428.79,51.17,427.36,49.84Z" fill="#b8c8d4" fill-rule="evenodd"/><path d="M434.24,55.17a15.66,15.66,0,0,1,2,1.66A13.56,13.56,0,0,1,434.24,55.17Z" fill="#b8c8d4" fill-rule="evenodd"/><path d="M437.43,57.66a7.93,7.93,0,0,0,1.19.83V25.33a32.67,32.67,0,0,0-6.28,0c1.62-.56,4.27-.09,6.28-.24.27,10.9,0,22.3.12,33.4C438.29,58.65,437.74,58,437.43,57.66Z" fill="#b8c8d4" fill-rule="evenodd"/><path d="M431.86,46.88c.69.61.22-1.56.36-2.24V36.34c.08-3.59-.16-7.51.12-10.9v21.8c-.32.08-.23-.24-.47-.24Z" fill="#b8c8d4" fill-rule="evenodd"/><path d="M431.16,46.41a40.59,40.59,0,0,1-3.32-2.72A38.25,38.25,0,0,1,431.16,46.41Z" fill="#b8c8d4" fill-rule="evenodd"/><path d="M427.13,43.22c-1.32-1.07-2.72-2-3.92-3.2C424.53,41.07,425.93,42,427.13,43.22Z" fill="#b8c8d4" fill-rule="evenodd"/><path d="M422.51,39.54a40.37,40.37,0,0,1-3.32-2.72A38.91,38.91,0,0,1,422.51,39.54Z" fill="#b8c8d4" fill-rule="evenodd"/><path d="M418.48,36.34c-1.31-1.06-2.71-2-3.91-3.2C415.88,34.2,417.28,35.17,418.48,36.34Z" fill="#b8c8d4" fill-rule="evenodd"/><path d="M413.86,32.66A41,41,0,0,1,410.55,30,36.49,36.49,0,0,1,413.86,32.66Z" fill="#b8c8d4" fill-rule="evenodd"/><path d="M409.24,29a42.28,42.28,0,0,1-3.31-2.72A38.48,38.48,0,0,1,409.24,29Z" fill="#b8c8d4" fill-rule="evenodd"/><path d="M405.22,25.8c-.69-.38-1.06-1.09-1.9-1.31C404,24.41,404.68,25.34,405.22,25.8Z" fill="#b8c8d4" fill-rule="evenodd"/><path d="M403.32,24.49c.84.22,1.2.93,1.9,1.31.32.07.29.49.71.47A42.28,42.28,0,0,0,409.24,29c.47.29.76.75,1.31,1a41,41,0,0,0,3.31,2.71c.32.08.3.5.72.48,1.2,1.16,2.6,2.14,3.91,3.2.31.07.29.49.7.47a40.37,40.37,0,0,0,3.32,2.72c.32.07.29.49.71.48,1.2,1.16,2.6,2.14,3.92,3.2.31.07.29.49.7.47a40.59,40.59,0,0,0,3.32,2.72c.32.07.29.49.71.47V47c.24,0,.15.32.47.24V25.33a32.67,32.67,0,0,1,6.28,0V58.49a7.93,7.93,0,0,1-1.19-.83c-.42-.25-.66-.67-1.19-.83a15.66,15.66,0,0,0-2-1.66A18.87,18.87,0,0,0,432,53.51c-1.42-1.33-3.07-2.45-4.62-3.67-3.24-2.48-6.36-5.08-9.71-7.46-1.79-1.61-3.79-3-5.69-4.5h-.12a13,13,0,0,0-2-1.66c-.27,0-.22-.41-.6-.36v2.72c-.34,6.4.13,13.62-.23,20h-5.45c-.11,0-.21-.1-.24-.23V24.49Zm.12.24V58.49H409c.11-7.55-.25-15.57.23-22.74,9.11,6.91,18.59,14.18,27.48,21.2.57.45,1.28,1.29,1.78,1.07V25.33h-6c-.08,7.3.16,14.92-.12,22C422.54,40.06,413,31.82,403.44,24.73Z" fill="#a4b278" fill-rule="evenodd"/><path d="M177.56,28.05a3.79,3.79,0,0,1,1.55-.83A12.65,12.65,0,0,1,177.56,28.05Z" fill="#b8c8d4" fill-rule="evenodd"/><path d="M174.49,30.18A5.43,5.43,0,0,1,175.91,29c-.31.52-1,.64-1.3,1.18Z" fill="#b8c8d4" fill-rule="evenodd"/><path d="M171.53,33.38a14.9,14.9,0,0,1,2.84-3.2,23,23,0,0,0-2.73,3.2Z" fill="#b8c8d4" fill-rule="evenodd"/><path d="M170.46,35.15a3.68,3.68,0,0,1,.82-1.3c-.23.44-.51.83-.71,1.3Z" fill="#b8c8d4" fill-rule="evenodd"/><path d="M171.17,51a18.86,18.86,0,0,1,1.78,2A13.85,13.85,0,0,1,171.17,51Z" fill="#b8c8d4" fill-rule="evenodd"/><path d="M173.07,53c.6.58,1.32,1,1.9,1.66A7.81,7.81,0,0,1,173.07,53Z" fill="#b8c8d4" fill-rule="evenodd"/><path d="M176.74,55.76a19.85,19.85,0,0,1,2,1.07A6.52,6.52,0,0,1,176.74,55.76Z" fill="#b8c8d4" fill-rule="evenodd"/><path d="M204.1,56.59a23.73,23.73,0,0,1,2.25-1.18A8.26,8.26,0,0,1,204.1,56.59Z" fill="#b8c8d4" fill-rule="evenodd"/><path d="M208.24,54.23c.92-.85,1.78-1.77,2.73-2.61A18.6,18.6,0,0,1,208.24,54.23Z" fill="#b8c8d4" fill-rule="evenodd"/><path d="M211,51.5c.53-.61.87-1.41,1.42-2A6.53,6.53,0,0,1,211,51.5Z" fill="#b8c8d4" fill-rule="evenodd"/><path d="M212.15,34a5.11,5.11,0,0,1,.95,1.78A15.51,15.51,0,0,1,212.15,34Z" fill="#b8c8d4" fill-rule="evenodd"/><path d="M211.08,32.43a4,4,0,0,1,1.07,1.43C211.7,33.47,211.49,32.86,211.08,32.43Z" fill="#b8c8d4" fill-rule="evenodd"/><path d="M208.36,29.71a16.49,16.49,0,0,1,2.72,2.6c-1-.77-1.67-1.8-2.72-2.49Z" fill="#b8c8d4" fill-rule="evenodd"/><path d="M208.24,29.71c-.61-.46-1.33-.8-1.89-1.3A6.56,6.56,0,0,1,208.24,29.71Z" fill="#b8c8d4" fill-rule="evenodd"/><path d="M206.23,28.41a11.39,11.39,0,0,1-1.54-.83A3.83,3.83,0,0,1,206.23,28.41Z" fill="#b8c8d4" fill-rule="evenodd"/><path d="M189.53,25h3.21a36.09,36.09,0,0,1,12,2.61,11.39,11.39,0,0,0,1.54.83h.12c.56.5,1.29.84,1.89,1.3h.12v.12c1.05.69,1.75,1.72,2.72,2.49v.12c.41.43.62,1,1.07,1.43V34a15.51,15.51,0,0,0,.95,1.78c1.63,4,1.24,10.42-.71,13.73-.55.6-.89,1.41-1.42,2v.12c-.94.83-1.8,1.75-2.73,2.61a19.57,19.57,0,0,0-1.89,1.18,23.73,23.73,0,0,0-2.25,1.18A37.75,37.75,0,0,1,193.44,59c-.4.07-1.1-.15-1.3.12H189.3a31.14,31.14,0,0,1-10.55-2.25,19.85,19.85,0,0,0-2-1.07A20.12,20.12,0,0,0,175,54.7c-.58-.61-1.29-1.08-1.9-1.66h-.12a18.86,18.86,0,0,0-1.78-2,15.18,15.18,0,0,1-2.6-7V41.67a21.36,21.36,0,0,1,1.9-6.51h.12c.2-.47.48-.86.71-1.3,0-.24.32-.15.24-.48h.11a23,23,0,0,1,2.73-3.2h.23c.29-.54,1-.66,1.3-1.18.63-.24,1.06-.68,1.66-.94a12.65,12.65,0,0,0,1.55-.83,30.61,30.61,0,0,1,9.23-2.13C188.71,25,189.36,25.24,189.53,25Zm-13.14,3.91a17.29,17.29,0,0,0-7.7,12.67,13.88,13.88,0,0,0,2.72,9.59c8.65,11.4,35.19,9.91,41.11-2.13,2.14-4.36,1.89-11.29-.71-15.4-3.09-4.86-10.13-8-18.47-8.52C186,24.62,180.32,26.29,176.39,28.88Z" fill="#a4b278" fill-rule="evenodd"/><path d="M360.09,28.17a3.94,3.94,0,0,1,1.54-.83A12.1,12.1,0,0,1,360.09,28.17Z" fill="#b8c8d4" fill-rule="evenodd"/><path d="M357,30.3a5.14,5.14,0,0,1,1.42-1.18c-.31.51-1,.64-1.3,1.18Z" fill="#b8c8d4" fill-rule="evenodd"/><path d="M354.64,32.66a15.36,15.36,0,0,1,2.25-2.37c-.67.83-1.53,1.48-2.13,2.37Z" fill="#b8c8d4" fill-rule="evenodd"/><path d="M353.69,51.14c.92,1,1.85,2,2.84,3A14.23,14.23,0,0,1,353.69,51.14Z" fill="#b8c8d4" fill-rule="evenodd"/><path d="M356.66,54.11c.59.52,1.33.88,1.9,1.42A6.55,6.55,0,0,1,356.66,54.11Z" fill="#b8c8d4" fill-rule="evenodd"/><path d="M359.26,55.88a18.75,18.75,0,0,1,2,1.07A6.49,6.49,0,0,1,359.26,55.88Z" fill="#b8c8d4" fill-rule="evenodd"/><path d="M386.62,56.71a23.1,23.1,0,0,1,2.25-1.19A8,8,0,0,1,386.62,56.71Z" fill="#b8c8d4" fill-rule="evenodd"/><path d="M390.76,54.34a22.25,22.25,0,0,0,4.15-4.74A14.86,14.86,0,0,1,390.76,54.34Z" fill="#b8c8d4" fill-rule="evenodd"/><path d="M395.62,47.95a4.71,4.71,0,0,1,.48-1.3A2.64,2.64,0,0,1,395.62,47.95Z" fill="#b8c8d4" fill-rule="evenodd"/><path d="M394.67,34.09a3.91,3.91,0,0,1,.83,1.54A12,12,0,0,1,394.67,34.09Z" fill="#b8c8d4" fill-rule="evenodd"/><path d="M394,32.9a24.59,24.59,0,0,0-4.5-4A15.64,15.64,0,0,1,394,32.9Z" fill="#b8c8d4" fill-rule="evenodd"/><path d="M385.31,27a4.82,4.82,0,0,1-1.3-.47A2.61,2.61,0,0,1,385.31,27Z" fill="#b8c8d4" fill-rule="evenodd"/><path d="M305.25,26.86a2.62,2.62,0,0,1,1.3-.47A4.69,4.69,0,0,1,305.25,26.86Z" fill="#b8c8d4" fill-rule="evenodd"/><path d="M295.53,35a21,21,0,0,1,6.28-6.51c-2.35,1.89-4.65,3.8-6.16,6.51Z" fill="#b8c8d4" fill-rule="evenodd"/><path d="M294.59,36.93a5.09,5.09,0,0,1,.94-1.78A14.3,14.3,0,0,1,294.59,36.93Z" fill="#b8c8d4" fill-rule="evenodd"/><path d="M296.13,50.31A23.48,23.48,0,0,0,301,54.82,15.83,15.83,0,0,1,296.13,50.31Z" fill="#b8c8d4" fill-rule="evenodd"/><path d="M301.1,54.82a18.18,18.18,0,0,1,2,1.06A6.61,6.61,0,0,1,301.1,54.82Z" fill="#b8c8d4" fill-rule="evenodd"/><path d="M324,52.68c.69-.49.43,1,.47,1.54-.41-.23.24-1.5-.35-1.54Z" fill="#b8c8d4" fill-rule="evenodd"/><path d="M307.39,52a5.13,5.13,0,0,1-1.78-1A15.87,15.87,0,0,1,307.39,52Z" fill="#b8c8d4" fill-rule="evenodd"/><path d="M303.71,49.84a11.18,11.18,0,0,1-2.13-2C302.3,48.48,303,49.16,303.71,49.84Z" fill="#b8c8d4" fill-rule="evenodd"/><path d="M299.92,45.11a8.15,8.15,0,0,1,.71,1.3A2.82,2.82,0,0,1,299.92,45.11Z" fill="#b8c8d4" fill-rule="evenodd"/><path d="M299.69,39.18a5.81,5.81,0,0,1,1.18-2.13C300.42,37.71,300.14,38.54,299.69,39.18Z" fill="#b8c8d4" fill-rule="evenodd"/><path d="M301.34,36.22a15.24,15.24,0,0,1,3.32-3.44A35.78,35.78,0,0,0,301.34,36.22Z" fill="#b8c8d4" fill-rule="evenodd"/><path d="M304.78,32.78a4,4,0,0,1,1.3-.94A8,8,0,0,1,304.78,32.78Z" fill="#b8c8d4" fill-rule="evenodd"/><path d="M306.19,31.84a5.09,5.09,0,0,1,1.79-.95A15.18,15.18,0,0,1,306.19,31.84Z" fill="#b8c8d4" fill-rule="evenodd"/><path d="M333.79,25.44s0-.22,0-.23c1.34-.73,4.82.2,6.4,0,.21,8.79.12,19.06.12,28.66,0,1.33.25,3.64-.35,3.91,0-.1,0-.1.12-.12.27-10.54,0-21.6.11-32.33a32.64,32.64,0,0,0-6.28,0C333.93,25.42,333.87,25.43,333.79,25.44Z" fill="#b8c8d4" fill-rule="evenodd"/><path d="M370.87,25.21c.4-.08,1.1.15,1.3-.12h3.55c.16.27.83,0,1.19.12a44.9,44.9,0,0,1,7.1,1.3,4.82,4.82,0,0,0,1.3.47,40.82,40.82,0,0,1,4.15,1.9,24.59,24.59,0,0,1,4.5,4c.13.5.49.77.71,1.19a12,12,0,0,0,.83,1.54,18.73,18.73,0,0,1,.59,11,4.71,4.71,0,0,0-.48,1.3,12.74,12.74,0,0,0-.71,1.65,22.25,22.25,0,0,1-4.15,4.74,20.77,20.77,0,0,0-1.89,1.18,23.1,23.1,0,0,0-2.25,1.19,38.27,38.27,0,0,1-10.54,2.37c-.4.07-1.1-.16-1.3.12h-3.08a31,31,0,0,1-10.42-2.25,18.75,18.75,0,0,0-2-1.07c-.25-.11-.35-.36-.71-.36-.57-.54-1.3-.9-1.9-1.42h-.12c-1-1-1.92-1.95-2.84-3a15.2,15.2,0,0,1-2.61-6.87V41.79a19.3,19.3,0,0,1,3.55-9.12h.12c.6-.89,1.46-1.54,2.13-2.37h.24c.28-.54,1-.67,1.3-1.18.63-.23,1.06-.68,1.66-.95a12.1,12.1,0,0,0,1.54-.83A31,31,0,0,1,370.87,25.21Zm-13,4.62a16.38,16.38,0,0,0-6.63,12,13.48,13.48,0,0,0,2.37,9c3.61,5.17,10.89,8.2,19.08,8.29,7.72.07,16.07-2.09,20.37-7,4.68-5.32,4.55-15-.13-20.13-3.76-4.15-11.4-7.2-20.72-6.75C366.57,25.47,361.51,27,357.83,29.83Z" fill="#a4b278" fill-rule="evenodd"/><path d="M474.27,57.89c-7.48.47-16.33.24-24,.12.15-10.78-.32-22.25.24-32.81-.28,10.69,0,21.91-.12,32.81C458.28,57.94,466.53,58.17,474.27,57.89Z" fill="#b8c8d4" fill-rule="evenodd"/><path d="M455.79,53.15c-.09,0-.23,0-.24-.11.09-3.36-.15-7,.13-10.19h12c.87,0,3.6.36,4,0s-.17-1.62.23-1.78c-.23.25.35,1.51-.12,1.89s-3.14,0-4,0h-12A87.29,87.29,0,0,0,455.79,53.15Z" fill="#b8c8d4" fill-rule="evenodd"/><path d="M471.67,38.59H455.55c.09-2.88-.15-6.08.13-8.76,6.15-.08,12.63.16,18.6-.12-5.71.55-12.44.08-18.6.24v8.4C460.72,38.71,466.61,38.23,471.67,38.59Z" fill="#b8c8d4" fill-rule="evenodd"/><path d="M306.55,26.39a39.52,39.52,0,0,1,7.7-1.18h4c1.41.09,2.77.23,4.15.35.67,1.31,1.15,2.8,1.78,4.15v.35h-2.13c-.4-.28-1.31,0-1.9-.11h-.83a9.86,9.86,0,0,0-2.49-.13h-1.3a7.43,7.43,0,0,0-3,0A11.44,11.44,0,0,0,308,30.89a5.09,5.09,0,0,0-1.79.95h-.11a4,4,0,0,0-1.3.94h-.12a15.24,15.24,0,0,0-3.32,3.44c-.14.29-.47.39-.47.83a5.81,5.81,0,0,0-1.18,2.13,3.72,3.72,0,0,0-.36,1.54,3.82,3.82,0,0,0,0,2.13,5,5,0,0,0,.59,2.25,2.82,2.82,0,0,0,.71,1.3,4.88,4.88,0,0,0,.95,1.42,11.18,11.18,0,0,0,2.13,2A7.63,7.63,0,0,0,305.6,51a5.13,5.13,0,0,0,1.78,1,17.55,17.55,0,0,0,6.27,1.17,21.45,21.45,0,0,0,5.09,0h.59c.36-.07,1,.16,1.19-.11a19.16,19.16,0,0,0,3.44-.36h.12c.6,0-.05,1.31.35,1.54-.18,1.09.39,2.92-.35,3.43a19.85,19.85,0,0,0-3.43.12h-1.78a25.81,25.81,0,0,0-3.91-.12h-.83c-.24-.27-1,0-1.42-.11a37.25,37.25,0,0,1-9.59-1.66,18.18,18.18,0,0,0-2-1.06H301a23.48,23.48,0,0,1-4.86-4.51c-2.3-3-3.5-9.17-1.53-13.38a14.3,14.3,0,0,0,.94-1.78V35h.13c1.51-2.71,3.81-4.63,6.16-6.51a31.26,31.26,0,0,1,3.43-1.66A4.69,4.69,0,0,0,306.55,26.39Zm-6.63,3.79c-3.08,2.61-6.29,6.74-6.28,12a14.37,14.37,0,0,0,7.94,12.79c5.66,3.07,14.51,2.59,22.62,2.61.33-1.45,0-3.21,0-4.74-4.7.61-9.68,1-14,.12a14.91,14.91,0,0,1-9.35-5.8,9.07,9.07,0,0,1-1.42-7.71c1.74-5.27,7-9.46,13.62-9.82,3.46-.2,7,.41,11,.36a27.53,27.53,0,0,0-1.77-4.27C313,24.48,304.94,25.92,299.92,30.18Z" fill="#a4b278" fill-rule="evenodd"/><path d="M333.79,25.44c.08,0,.14,0,.12-.11a32.64,32.64,0,0,1,6.28,0c-.07,10.73.16,21.79-.11,32.33-.07,0-.14,0-.12.12a59.38,59.38,0,0,1-6-.12C333.64,47.16,333.87,36.14,333.79,25.44Zm5.92-.11H334c-.21,10.46-.21,21.75,0,32.21,1.74.27,4,0,5.92.11.27-10.5,0-21.52.12-32.22C340.05,25.3,339.88,25.32,339.71,25.33Z" fill="#a4b278" fill-rule="evenodd"/><path d="M474.27,57.89c-7.75.28-16,0-23.93.12.08-10.9-.16-22.12.12-32.81h23.68a34,34,0,0,1,.12,4.5c-6,.27-12.44,0-18.6.12-.28,2.68,0,5.88-.13,8.76h16.23a10.42,10.42,0,0,1,.12,2.49c-.4.16.17,1.43-.23,1.78s-3.17,0-4,0h-12c-.28,3.16,0,6.83-.13,10.19,0,.11.15.09.24.11,6.09.08,12.48-.15,18.36.12A35.63,35.63,0,0,1,474.27,57.89ZM450.46,25.68V57.89H474a17.24,17.24,0,0,0,0-4.5c-5.92-.35-12.67.12-18.6-.24.08-3.39-.16-7.1.11-10.3,5.13-.27,10.79,0,16.12-.11,0-1.42.2-2.56.11-4-5.41-.08-11.13.16-16.35-.12.08-2.88-.16-6.08.11-8.76,5.93-.28,12.37,0,18.48-.12a16.33,16.33,0,0,0,0-4.38H450.57C450.44,25.35,450.45,25.51,450.46,25.68Z" fill="#a4b278" fill-rule="evenodd"/><path d="M483.5,30.53a12.41,12.41,0,0,1,3.56-3A25.86,25.86,0,0,0,483.5,30.53Z" fill="#b8c8d4" fill-rule="evenodd"/><path d="M482.2,32.78a2.81,2.81,0,0,1,.71-1.3A7.33,7.33,0,0,1,482.2,32.78Z" fill="#b8c8d4" fill-rule="evenodd"/><path d="M482.8,38.71c.63.66,1.34,1.27,2,1.89A7,7,0,0,1,482.8,38.71Z" fill="#b8c8d4" fill-rule="evenodd"/><path d="M500.33,45.82a5.1,5.1,0,0,1,1.77.94A15.22,15.22,0,0,1,500.33,45.82Z" fill="#b8c8d4" fill-rule="evenodd"/><path d="M502.57,47c.54.53,1.27.86,1.31,1.89A4.6,4.6,0,0,0,502.57,47Z" fill="#b8c8d4" fill-rule="evenodd"/><path d="M503.64,51.38a4.63,4.63,0,0,1-2.85,2.73A6.23,6.23,0,0,0,503.64,51.38Z" fill="#b8c8d4" fill-rule="evenodd"/><path d="M488.24,52.92c-.37-.25-.94-.32-1.18-.71C487.43,52.47,488,52.54,488.24,52.92Z" fill="#b8c8d4" fill-rule="evenodd"/><path d="M486.94,52.21A13.43,13.43,0,0,1,485.16,51c-.33-.08-.24.24-.47.24C485.33,50.45,486.3,51.89,486.94,52.21Z" fill="#b8c8d4" fill-rule="evenodd"/><path d="M484.57,56.71a16.67,16.67,0,0,1-3.32-2.49c.85-1.26,2.24-1.95,3.32-3-.93,1.09-2.27,1.76-3.2,2.84a11.9,11.9,0,0,0,3.2,2.49Z" fill="#b8c8d4" fill-rule="evenodd"/><path d="M485.28,57.07a14.94,14.94,0,0,1,1.78.95A5.11,5.11,0,0,1,485.28,57.07Z" fill="#b8c8d4" fill-rule="evenodd"/><path d="M505.65,57.07a10.38,10.38,0,0,0,2.72-2.72A6.44,6.44,0,0,1,505.65,57.07Z" fill="#b8c8d4" fill-rule="evenodd"/><path d="M508.49,45.46c-.43-.39-.78-.87-1.18-1.3A4.42,4.42,0,0,1,508.49,45.46Z" fill="#b8c8d4" fill-rule="evenodd"/><path d="M507.19,44.16c-.42-.4-1-.62-1.42-1.06A4,4,0,0,1,507.19,44.16Z" fill="#b8c8d4" fill-rule="evenodd"/><path d="M505.42,43a8,8,0,0,1-1.3-.7A2.77,2.77,0,0,1,505.42,43Z" fill="#b8c8d4" fill-rule="evenodd"/><path d="M492.5,39.07a2.6,2.6,0,0,1-1.3-.48A4.81,4.81,0,0,1,492.5,39.07Z" fill="#b8c8d4" fill-rule="evenodd"/><path d="M490,38.12a4,4,0,0,1-2.25-2.25A6.17,6.17,0,0,0,490,38.12Z" fill="#b8c8d4" fill-rule="evenodd"/><path d="M487.77,34a5.53,5.53,0,0,1,2-2.6A10.34,10.34,0,0,0,487.77,34Z" fill="#b8c8d4" fill-rule="evenodd"/><path d="M490.26,31.13a2.73,2.73,0,0,1,1.3-.71A8.38,8.38,0,0,1,490.26,31.13Z" fill="#b8c8d4" fill-rule="evenodd"/><path d="M503.16,32.07a8.56,8.56,0,0,1,2,1.54C504.49,33.12,503.8,32.62,503.16,32.07Z" fill="#b8c8d4" fill-rule="evenodd"/><path d="M505.3,33.61c.69-.57,1.42-1.11,2.12-1.65A8.61,8.61,0,0,1,505.3,33.61Z" fill="#b8c8d4" fill-rule="evenodd"/><path d="M507.55,32c.38-.61,1.16-.82,1.54-1.43-.43-.55-1.19-.77-1.66-1.3a17.9,17.9,0,0,1,1.79,1.19C508.89,31.18,508.09,31.43,507.55,32Z" fill="#b8c8d4" fill-rule="evenodd"/><path d="M505.65,28.28a8.05,8.05,0,0,1-1.3-.71A2.85,2.85,0,0,1,505.65,28.28Z" fill="#b8c8d4" fill-rule="evenodd"/><path d="M487.06,27.57a17.66,17.66,0,0,1,6.87-2.13h2.61a26.83,26.83,0,0,1,7.81,2.13,8.05,8.05,0,0,0,1.3.71,13,13,0,0,0,1.77.95c.47.53,1.23.75,1.66,1.3-.38.61-1.15.82-1.54,1.43h-.12c-.71.55-1.43,1.09-2.12,1.65h-.12a8.56,8.56,0,0,0-2-1.54,15.09,15.09,0,0,0-11.61-1.65,2.73,2.73,0,0,0-1.3.71c-.32-.09-.24.23-.48.23a5.53,5.53,0,0,0-2,2.6,2.23,2.23,0,0,0,0,1.9A4,4,0,0,0,490,38.12c.41.14.64.46,1.19.47a2.6,2.6,0,0,0,1.3.48c4,1,8.14,1.73,11.61,3.2a8,8,0,0,0,1.3.7.59.59,0,0,0,.35.13c.38.44,1,.66,1.42,1.06h.12c.4.43.75.91,1.18,1.3a9.26,9.26,0,0,1,.83,3.32v2a12.1,12.1,0,0,1-1,3.55,10.38,10.38,0,0,1-2.72,2.72,24.11,24.11,0,0,1-8.89,2.6h-3.07A23.12,23.12,0,0,1,487.06,58a14.94,14.94,0,0,0-1.78-.95c-.25-.11-.35-.36-.71-.35v-.12a11.9,11.9,0,0,1-3.2-2.49c.93-1.09,2.27-1.76,3.2-2.84h.12c.23,0,.14-.32.47-.24a13.43,13.43,0,0,0,1.78,1.19h.12c.24.38.81.45,1.18.71,2.87,1.64,8.7,2.73,12.56,1.19a4.63,4.63,0,0,0,2.85-2.73,1.89,1.89,0,0,0,.24-.94,1.87,1.87,0,0,0,0-1.43v-.12c0-1-.77-1.37-1.31-1.89-.23,0-.15-.32-.47-.24a5.1,5.1,0,0,0-1.77-.94c-4.73-2.19-11.28-2.55-15.53-5.22-.67-.62-1.37-1.23-2-1.89a6.58,6.58,0,0,1-.6-5.92,7.33,7.33,0,0,0,.71-1.3c.14-.37.51-.51.59-.95A25.86,25.86,0,0,1,487.06,27.57Zm2.13-.94c-4.29,1.76-10,7.31-6.15,12.2,2,2.55,6.51,3.69,10.54,4.74,3.78,1,12.63,2.46,10.19,8.05-2.61,6-15.26,2.89-18.6-.48-1.36.81-2.36,2-3.67,2.85A19.57,19.57,0,0,0,497,59.55c3.31-.24,7.2-1.42,9.36-3.08s4-6.36,2.37-10.3c-1-2.51-4.89-4.11-8.17-5.09C497,40,492.82,39.79,490,38.35c-.87-.44-2.56-1.72-2.61-3.32-.1-2.88,3.22-5,6.52-5.21,5.46-.36,8.64,1.61,11.49,3.55,1.17-1,2.43-1.83,3.55-2.84C504.57,27,496.07,23.8,489.18,26.63Z" fill="#a4b278" fill-rule="evenodd"/><path d="M222.46,57.42c7.39.2,15.6.2,23,0-5,.43-11.39.23-17.29.23C226.21,57.66,223.61,57.84,222.46,57.42Z" fill="#b8c8d4" fill-rule="evenodd"/><path d="M247.21,54.11a.89.89,0,0,1,.24-.35c-.41-.67-1.4-.36-2-.36-5.67,0-11.75.1-17.05-.12V25.91c.28,8.88,0,18.28.12,27.36,5.49,0,11.48,0,17.17,0,.52,0,1.7-.36,1.9.48a.81.81,0,0,0-.24.35Z" fill="#b8c8d4" fill-rule="evenodd"/><path d="M222.46,57.42c.08-10.55-.16-21.4.12-31.74,1.61-.06,4.58-.48,5.8.23V53.27c5.31.22,11.39.12,17.05.12.61,0,1.6-.31,2,.36a.89.89,0,0,0-.24.35,30.21,30.21,0,0,0-1.78,3.32C238.05,57.62,229.84,57.62,222.46,57.42Zm.24-31.62c-.28,10.26,0,21-.12,31.5,7.26.28,15,0,22.51.12a23.49,23.49,0,0,0,2.25-3.91c-6.32-.08-13,.16-19.07-.12-.08-9.15.16-18.63-.12-27.59A25.23,25.23,0,0,0,222.69,25.8Z" fill="#a4b278" fill-rule="evenodd"/><path d="M188.34,29.83a27.37,27.37,0,0,1,14.34,2.37A12.23,12.23,0,0,1,208,37.76a11.15,11.15,0,0,1-.6,8.76c-4.34,7.82-21.23,9.55-29.13,3.79a9.65,9.65,0,0,1-3.68-10.54,13.63,13.63,0,0,1,3.56-5.69C180.51,31.73,184.44,30.22,188.34,29.83Zm5.09.13a21,21,0,0,0-5.09,0A17.4,17.4,0,0,0,181,32.19a13.25,13.25,0,0,0-5,5c-1.64,2-2.4,6.94-.72,9.48a9.83,9.83,0,0,0,4,4.14c6.1,3.91,18.73,3.58,24.28-.6a10.27,10.27,0,0,0,3.44-3.43v-.11a2.9,2.9,0,0,0,.71-1.31,7,7,0,0,0,.59-2.6,5.31,5.31,0,0,0,0-2.49,7.37,7.37,0,0,0-.95-3.32,10.18,10.18,0,0,0-4.5-4.38A21.89,21.89,0,0,0,193.44,30Z" fill="#a4b278" fill-rule="evenodd"/><path d="M371,30c8.27-.77,16.07,1.67,19,6.74a10.51,10.51,0,0,1-.12,10.18c-5.53,9.2-27.84,9.46-32.32-.35-2.57-5.6,1.62-11.52,5.08-13.86A18.19,18.19,0,0,1,371,30Zm4.86.11a19.74,19.74,0,0,0-4.86,0,17.2,17.2,0,0,0-8.41,2.84,13.43,13.43,0,0,0-4,4.38c-2.08,2.34-2.26,8.38,0,10.67a9.85,9.85,0,0,0,2.72,2.6c.25.11.35.36.71.35a2.73,2.73,0,0,0,1.3.71c4.65,2.23,12.36,2.9,17.77.95a2.6,2.6,0,0,0,1.3-.48A13.64,13.64,0,0,0,387,49.73a9.08,9.08,0,0,0,2.37-2.49,8.31,8.31,0,0,0,1.54-4.39,4.87,4.87,0,0,0,0-2.37,5.84,5.84,0,0,0-.59-2.6,4.61,4.61,0,0,0-1.18-2v-.11A9.94,9.94,0,0,0,386,33,22,22,0,0,0,375.84,30.06Z" fill="#a4b278" fill-rule="evenodd"/><path d="M202.91,32.55a10.18,10.18,0,0,1,4.5,4.38,11.36,11.36,0,0,0-4.5-4.27Z" fill="#b8c8d4" fill-rule="evenodd"/><path d="M207.77,45.34a2.9,2.9,0,0,1-.71,1.31A8.64,8.64,0,0,1,207.77,45.34Z" fill="#b8c8d4" fill-rule="evenodd"/><path d="M203.62,50.19a16.94,16.94,0,0,0,3.44-3.43A10.27,10.27,0,0,1,203.62,50.19Z" fill="#b8c8d4" fill-rule="evenodd"/><path d="M179.34,50.79a9.83,9.83,0,0,1-4-4.14A13.22,13.22,0,0,0,179.34,50.79Z" fill="#b8c8d4" fill-rule="evenodd"/><path d="M176,37.17a13.25,13.25,0,0,1,5-5A17.45,17.45,0,0,0,176,37.17Z" fill="#b8c8d4" fill-rule="evenodd"/><path d="M386,33a9.94,9.94,0,0,1,3.08,2.73A13,13,0,0,0,386,33.14Z" fill="#b8c8d4" fill-rule="evenodd"/><path d="M389.11,35.87a4.61,4.61,0,0,1,1.18,2C389.84,37.26,389.59,36.44,389.11,35.87Z" fill="#b8c8d4" fill-rule="evenodd"/><path d="M387,49.73a28.55,28.55,0,0,0,2.37-2.49A9.08,9.08,0,0,1,387,49.73Z" fill="#b8c8d4" fill-rule="evenodd"/><path d="M381.05,52.57a5.16,5.16,0,0,1,1.3-.48A2.6,2.6,0,0,1,381.05,52.57Z" fill="#b8c8d4" fill-rule="evenodd"/><path d="M363.28,51.62a2.73,2.73,0,0,1-1.3-.71A9.09,9.09,0,0,1,363.28,51.62Z" fill="#b8c8d4" fill-rule="evenodd"/><path d="M358.55,47.95a26,26,0,0,0,2.72,2.6A9.85,9.85,0,0,1,358.55,47.95Z" fill="#b8c8d4" fill-rule="evenodd"/><path d="M358.55,37.28a13.43,13.43,0,0,1,4-4.38A20.23,20.23,0,0,0,358.55,37.28Z" fill="#b8c8d4" fill-rule="evenodd"/><path d="M133.5,68.32v-.11c0-.1.05-.11.13-.13C258.41,67.86,384,68,509.21,68c.75,0,1.86-.29,2.48.35v1.9c-125.78.19-252.41.19-378.19,0v-1.9Zm.13.12c.09,1.46-.43,1.64.94,1.78.47,0,.94,0,1.54,0H509.56c.55,0,2.28.61,2-1.07.33-1.54-1.24-1.06-1.78-1.07H133.86A.32.32,0,0,0,133.63,68.44Z" fill="#a4b278" fill-rule="evenodd"/><path d="M442.77,106.1c7.31.28,15.12,0,22.62.12v4.62H436.62c-.28-10.58,0-21.68-.12-32.46,9.39-.27,19.31,0,28.9-.12v4.38c-7.5.07-15.32-.15-22.62.12a63.51,63.51,0,0,0,0,8.65c6.32.28,13.15,0,19.66.12a15,15,0,0,1,0,4.15c-6.51.08-13.35-.16-19.66.12A90.13,90.13,0,0,0,442.77,106.1Z" fill="#5583bb" fill-rule="evenodd"/><path d="M436.62,78c9.64.08,19.58-.16,29,.12v4.62c-7.31.27-15.12,0-22.63.12-.27,2.57,0,5.65-.12,8.41,6.36.36,13.55-.11,19.9.24a25.1,25.1,0,0,1-.22,4.38H443c-.27,3.13,0,6.76-.12,10.07,7.55.08,15.4-.15,22.75.12a41,41,0,0,1-.13,5c-9.66-.08-19.66.16-29.13-.12V78.38A.32.32,0,0,1,436.62,78Zm6.16,17.76c6.32-.27,13.15,0,19.66-.12a15,15,0,0,0,0-4.15c-6.51-.08-13.35.16-19.66-.12a63.51,63.51,0,0,1,0-8.65c7.31-.27,15.12,0,22.62-.12V78.27c-9.59.08-19.51-.15-28.9.12.08,10.78-.16,21.88.12,32.46H465.4v-4.62c-7.5-.08-15.32.16-22.62-.12A90.13,90.13,0,0,1,442.77,95.8Z" fill="#b8c8d4" fill-rule="evenodd"/><path d="M261.58,77.23c8.35.54,15.39,3.66,18.47,8.53,2.61,4.11,2.86,11,.72,15.4-5.91,12-32.45,13.54-41.1,2.13a13.88,13.88,0,0,1-2.73-9.6A17.27,17.27,0,0,1,244.64,81C248.58,78.44,254.23,76.76,261.58,77.23Zm-15.16,9a13.58,13.58,0,0,0-3.55,5.68,9.64,9.64,0,0,0,3.67,10.55c7.91,5.76,24.79,4,29.14-3.79a11.18,11.18,0,0,0,.59-8.77,12.16,12.16,0,0,0-5.33-5.56A27.29,27.29,0,0,0,256.61,82C252.71,82.36,248.78,83.87,246.42,86.24Z" fill="#5180bd" fill-rule="evenodd"/><path d="M256.61,82.09a22.24,22.24,0,0,1,5.09,0Z" fill="#5180bd" fill-rule="evenodd"/><path d="M245.83,80.19a3.93,3.93,0,0,1,1.54-.82A11.43,11.43,0,0,1,245.83,80.19Z" fill="#5180bd" fill-rule="evenodd"/><path d="M242.74,82.32a5.35,5.35,0,0,1,1.43-1.19c-.31.52-1,.64-1.3,1.19Z" fill="#5180bd" fill-rule="evenodd"/><path d="M239.79,85.52a15,15,0,0,1,2.84-3.2,22.76,22.76,0,0,0-2.72,3.2Z" fill="#5180bd" fill-rule="evenodd"/><path d="M241.33,105.19c.6.58,1.32,1,1.89,1.65A7.84,7.84,0,0,1,241.33,105.19Z" fill="#5180bd" fill-rule="evenodd"/><path d="M274.49,80.55a11,11,0,0,1-1.54-.83A3.86,3.86,0,0,1,274.49,80.55Z" fill="#5180bd" fill-rule="evenodd"/><path d="M257.79,77.12H261a36,36,0,0,1,12,2.6,11,11,0,0,0,1.54.83h.12c.56.51,1.29.84,1.89,1.3h.12V82a36,36,0,0,1,2.72,2.49v.11A15.52,15.52,0,0,0,280.42,86v.12a13.93,13.93,0,0,0,.94,1.78c1.64,4,1.25,10.42-.71,13.73-.55.6-.89,1.41-1.42,2v.12c-.94.84-1.81,1.75-2.73,2.6-.71.31-1.24.81-1.89,1.18a24.54,24.54,0,0,0-2.25,1.19,37.48,37.48,0,0,1-10.66,2.36c-.4.08-1.1-.15-1.3.12h-2.84A31.08,31.08,0,0,1,247,109a19.65,19.65,0,0,0-2-1.07,19.29,19.29,0,0,0-1.77-1.06c-.57-.61-1.29-1.07-1.89-1.65h-.11a19.48,19.48,0,0,0-1.78-2,15.17,15.17,0,0,1-2.61-7V93.81a21.86,21.86,0,0,1,1.89-6.51h.12c.2-.48.48-.86.71-1.31,0-.23.32-.15.24-.47h.12a22.76,22.76,0,0,1,2.72-3.2h.23c.29-.54,1-.67,1.3-1.19.63-.24,1.06-.68,1.66-.95a11.43,11.43,0,0,0,1.54-.82,30.85,30.85,0,0,1,9.24-2.13C257,77.16,257.63,77.38,257.79,77.12ZM244.64,81a17.27,17.27,0,0,0-7.7,12.67,13.88,13.88,0,0,0,2.73,9.6c8.65,11.4,35.19,9.91,41.1-2.13,2.14-4.36,1.89-11.29-.72-15.4-3.09-4.87-10.13-8-18.47-8.53C254.23,76.76,248.58,78.44,244.64,81Z" fill="#5180bd" fill-rule="evenodd"/><path d="M256.61,82a27.29,27.29,0,0,1,14.33,2.37,12.16,12.16,0,0,1,5.33,5.56,11.18,11.18,0,0,1-.59,8.77c-4.34,7.81-21.23,9.55-29.14,3.79a9.64,9.64,0,0,1-3.67-10.55,13.58,13.58,0,0,1,3.55-5.68C248.78,83.87,252.71,82.36,256.61,82Zm5.09.12a22.24,22.24,0,0,0-5.09,0,17.45,17.45,0,0,0-7.35,2.25,13.21,13.21,0,0,0-5,5c-1.63,2-2.39,6.94-.72,9.47a9.85,9.85,0,0,0,4,4.15c6.1,3.91,18.74,3.57,24.28-.59a10.27,10.27,0,0,0,3.43-3.44v-.12a2.73,2.73,0,0,0,.71-1.3,6.91,6.91,0,0,0,.59-2.61,5.33,5.33,0,0,0,0-2.49,7.32,7.32,0,0,0-.95-3.31,10.24,10.24,0,0,0-4.51-4.38A21.92,21.92,0,0,0,261.7,82.09Z" fill="#5180bd" fill-rule="evenodd"/><path d="M271.17,84.69a10.24,10.24,0,0,1,4.51,4.38,11.31,11.31,0,0,0-4.51-4.27Z" fill="#5180bd" fill-rule="evenodd"/><path d="M271.88,102.34a16.8,16.8,0,0,0,3.43-3.44A10.27,10.27,0,0,1,271.88,102.34Z" fill="#5180bd" fill-rule="evenodd"/><path d="M247.6,102.93a9.85,9.85,0,0,1-4-4.15A13.28,13.28,0,0,0,247.6,102.93Z" fill="#5180bd" fill-rule="evenodd"/><path d="M244.29,89.31a13.21,13.21,0,0,1,5-5A17.33,17.33,0,0,0,244.29,89.31Z" fill="#5180bd" fill-rule="evenodd"/><path d="M279.46,52.57l-.86.45c-1.67,2.6-6.61,5.33-13.14,5.33-5.78,0-12.7-2.88-12.7-14.16V25.29h6.69V43.12c0,6.15,2.2,10.35,8.21,10.35a9.62,9.62,0,0,0,8.82-5.41,7.27,7.27,0,0,0,.61-3V25.29h6.69V46.76Z" fill="#9bb535"/><path d="M257.59,52.54l.85.45c1.65,2.61,6.52,5.33,13,5.33,5.69,0,12.52-2.87,12.52-14.16V25.26h-6.6V43.1c0,6.14-2.17,10.35-8.1,10.35a9.48,9.48,0,0,1-8.7-5.4,7.23,7.23,0,0,1-.6-3V25.26h-6.6V46.73Z" fill="#9bb535"/><path d="M257.4,55.88s13.17,8.71,23.43-1.45L279.9,52l-10.79,2.25H258Z" fill="#9bb535"/><path d="M77.72,76a.63.63,0,0,1,0-.11,32.3,32.3,0,0,0-4.63-14.2,22.06,22.06,0,0,0-5.74-5.94s-1.7-.66.84,2.42h0l.06.08A25.46,25.46,0,0,1,72.06,66c.23.88.43,1.66.61,2.39a44.19,44.19,0,0,1,.49,13.64c0,.32-.07.62-.09.89,0,0,0,.06,0,.09-.27,2.19.24,3.26.94,3.74a2,2,0,0,0,1.3.4,2.15,2.15,0,0,0,1.08-.26C76.85,86.59,79.64,84.4,77.72,76Z" fill="#9bb535"/><path d="M61.59,56.2s-.86-.21-5.19,2.73a46.32,46.32,0,0,1-10.77,4.84,63.64,63.64,0,0,1-11.06,2.39S21.23,67.5,15.43,67.37s-5.8,2.16-5.8,2.16-.83,1.88,3.45,2h.42C18,71.49,28,70.8,28,70.8a118.25,118.25,0,0,0,14.14-2.66,47.57,47.57,0,0,0,5.42-1.72C55.09,63.46,62,59.29,61.59,56.2Z" fill="#9bb535"/><path d="M68.67,10.7S67,12.12,46.49,22.07c-9.54,4.62-19.42,7.79-26.29,7.77-4.71,0-6.53-.13-10-1.85C7.73,26.72,9.46,24.62,8,25.67c-.74.52-1.25,3.23.1,4.51a10.45,10.45,0,0,0,4.4,2.11q.87.22,1.85.4a31.72,31.72,0,0,0,5.52.45c.81,0,1.66,0,2.53-.08,3.77-.23,9.34-2,14.32-3.81s9.34-3.77,10.73-4.42c3.19-1.48,8.36-4,22.37-13.53Z" fill="#5180bd"/><path d="M83.54,34.38l.05-.06a3.66,3.66,0,0,0,.25-.27l.05,0,.22-.26,0-.06a2.8,2.8,0,0,1,.18-.22l0,0,.13-.18,0,0a1.92,1.92,0,0,0,.11-.17s0,0,0,0a1,1,0,0,0,.06-.14v0a.43.43,0,0,0,0-.12h0a.36.36,0,0,0,0-.1v0a.28.28,0,0,0,0-.07h0a.25.25,0,0,0-.13-.09h0l-.09,0h-.11l-.18,0h-.06l-.19,0-.06,0-.16,0-.06,0-.18.06-.07,0-.15.06-.05,0-.1,0,0,0-.08,0h-.06c-1.1.53-3.81,2.4-3.81,2.4C77,36.74,61.59,44.69,43.28,50.4,31.71,54,17.23,57.1,9.56,56.2a19.65,19.65,0,0,1-6.64-1.83C-.47,52.49,2,51.1,1.73,51h0c-.83-.1-1.33.59-1.55,1.29A2.6,2.6,0,0,0,0,53.4a4.81,4.81,0,0,0,.92,1.85c.15.21.28.36.34.43h0l0,0,.09.11,0,0,.07.08.34.32,0,0A9.51,9.51,0,0,0,4,57.62H4l.37.17.26.11.14.06A18.17,18.17,0,0,0,8,58.85H8c.33.06.67.12,1,.17l.3,0a50.79,50.79,0,0,0,8.15.23,104.52,104.52,0,0,0,18.06-2.45C46.71,54.37,72,44.46,80.26,37.38l.71-.62,0,0,.61-.54.07-.07.53-.48,0,0,.44-.41.06-.07.38-.36.08-.08Z" fill="#5180bd"/><path d="M71.4,99.47c-4.77,1.75-21.14,5.12-32.2,4.38-5.86-.39-14.9-.13-21.76-6.5-6.07-5.63-10.37-18-10.37-18s-3.4-10-4.74-13.7a9.36,9.36,0,0,0-.5-1.34h0l0,0h0v0s0,0,0,.06v.08a.58.58,0,0,1,0,.1,1,1,0,0,1,0,.12s0,.08,0,.13a.84.84,0,0,1,0,.17.93.93,0,0,1,0,.15c0,.07,0,.13.05.21s0,.11,0,.18l.06.25c0,.06,0,.13,0,.2s0,.19.07.29,0,.14,0,.21.05.23.08.35l.06.23c0,.13.06.25.09.38l.06.25c0,.13.06.27.1.41s0,.18.06.27.07.3.11.45l.07.25.13.51c0,.08,0,.16.07.24s.08.36.13.54,0,.17.06.25l.14.56.07.27.14.57.07.26c.05.2.11.4.15.6l.07.27c.06.2.11.41.16.62l.07.26c.06.21.11.42.17.64a2.42,2.42,0,0,1,.06.25l.19.68.05.21c.07.24.13.47.2.71,0,.06,0,.12,0,.19l.2.73c0,.05,0,.11,0,.17.07.25.13.5.21.74,0,.05,0,.1,0,.16.07.25.14.49.21.74l0,.15.21.74a.62.62,0,0,0,0,.13c.07.26.14.52.23.76a.38.38,0,0,0,0,.08l.23.78,0,0c.41,1.35.8,2.59,1.16,3.6,3,8.34,6.08,14.61,14.37,18.71l.62.2a86.58,86.58,0,0,0,18,3.34,89.13,89.13,0,0,0,21.16-.81s3.26-.69,6.45-1.7a18.53,18.53,0,0,0,5.42-2.41l0,0,.34-.3.12-.11C76.26,100.21,76.12,97.74,71.4,99.47Z" fill="#9bb535"/><path d="M48.46,97.52c.48-2.29-7-2.09-7-2.09s-13.91,1.32-19.35-3.7A38.06,38.06,0,0,1,13.5,80.38s-1-2-1.25-1.72h0s-.06.11-.06.35c0,1.21,1.44,5.66,4.38,10q.63.93,1.36,1.85a22.51,22.51,0,0,0,4.8,4.67,16.42,16.42,0,0,0,5.49,2.51l.08,0A47.92,47.92,0,0,0,42.22,99c3.79-.25,6.47-.88,6.24-1.5Z" fill="#9bb535"/><path d="M49,34.89c-2.07-3.9-6.8-14-6.8-14S32.32.79,31.84.25c-.29-.31-.47-.3-.52-.12h0c-.1,0,0,.23.13.6.27.61,10.09,24.5,10.09,24.5a1.38,1.38,0,0,0,.05.16c0,.1.1.24.17.43.13.38.33.93.57,1.58l.47,1.28c1.53,4.21,4,10.89,4.55,12.16A10.84,10.84,0,0,0,48,42.06,43.7,43.7,0,0,0,50.77,46h0a6.13,6.13,0,0,0,.91,1.19c.72.84,1.62,1.66,1.78.76C53.47,47.9,51.08,38.8,49,34.89Z" fill="#5180bd"/><path d="M89.3,63c-1.93-5.67-7.61-15.9-15.21-25.86S57,18.89,54.41,18.19c-1-.28-1.57-.23-1.79,0h0a.22.22,0,0,0,0,.07s0,0,0,0a.46.46,0,0,0,0,.15v0s0,.1,0,.15,0,0,0,0a1,1,0,0,0,0,.15.16.16,0,0,0,0,0l.06.2h0a4,4,0,0,0,.23.5s0,0,0,0l.14.23,0,0c.17.28.38.57.6.87h0c.06.1.14.19.22.28h0a33.65,33.65,0,0,0,2.48,2.75s1.59,1.88,7.53,7.47c4.46,4.19,9.31,10.81,11.45,13.85.72,1,1.13,1.63,1.13,1.63C89.85,65.08,89.85,79.22,89.85,79.22s.29,12.1-.14,21.27c-.62,9.15.49,7.48.49,7.48l.54-2.63C94.87,78.43,89.39,63.32,89.3,63Z" fill="#5180bd"/><path d="M118.23,37.91a73.63,73.63,0,0,1-12.58,13.87c-5.83,5-16.36,11-16.58,11.26a6.83,6.83,0,0,0-1.38,4.16c.19.87,3,.13,3,.13a140.66,140.66,0,0,0,11.68-8.24,70.48,70.48,0,0,0,13.2-13.39S117.65,42,119,39.52C119.7,38.27,118.56,37.43,118.23,37.91Z" fill="#5180bd"/><path d="M119.25,39.52l-.54,1,.92-1.33c.17-.24.24-.47.19-.47s-.23.21-.56.82" fill="#5180bd"/><path d="M105.39,77.87,93.72,85.23l-12,6.09a4,4,0,0,0-1.36,2c0,.06,0,.13,0,.19a.14.14,0,0,1,0,.06.5.5,0,0,0,0,.1l0,.07.06.09a.16.16,0,0,0,0,.05l.08.08.05,0,.17.1a.31.31,0,0,0,.09,0l.11,0,.11,0,.13,0,.11,0,.16,0,.1,0,.27,0H83c.35,0,.7-.06,1.05-.11h0c1.3-.17,2.43-.43,2.43-.43a22.73,22.73,0,0,0,2.42-1.17c3-1.59,7.52-4.44,12.34-7.72l2-1.34a50.22,50.22,0,0,0,11.81-10.86l0,0,.28-.38.09-.14.25-.36.07-.1.3-.49.08-.13.24-.4a1.62,1.62,0,0,0,.09-.16c.1-.17.21-.35.31-.54l.06-.1c.09-.15.17-.31.25-.47l.1-.17.27-.51s0,0,0-.08c.11-.19.21-.39.3-.58s.06-.13.09-.18l.23-.46.07-.15.28-.57.09-.17c.06-.14.13-.29.2-.43a1.54,1.54,0,0,0,.08-.18l.26-.54a.48.48,0,0,1,0-.11l.2-.44.08-.17.19-.43a.47.47,0,0,0,0-.08l.22-.49a.72.72,0,0,1,.05-.1c.05-.13.11-.26.16-.38l0-.05h0a0,0,0,0,1,0,0c.44-1,.71-1.67.71-1.67A75.44,75.44,0,0,1,105.39,77.87Z" fill="#5180bd"/><path d="M121.1,38a54.73,54.73,0,0,0-14.26-22.48A50.49,50.49,0,0,0,78.43,2.42c-2.06.31-3.05.61-3.35.9L75,3.38l0,0a.29.29,0,0,0,0,.06v0a.18.18,0,0,0,0,.08h0a.28.28,0,0,0,.05.09l0,0,.08.07,0,0a1.54,1.54,0,0,0,.32.18h0l.16.07,0,0,.48.16.06,0,.22.06.06,0,.59.14.06,0,.25,0,.06,0,.63.13,0,0,.31.05h0L80.06,5h0l.14,0h0l.13,0A50,50,0,0,1,87.1,7.39l.18.07a55.48,55.48,0,0,1,5.13,2.41c.87.46,1.69.93,2.48,1.42.37.22.74.44,1.09.67.93.59,1.81,1.19,2.63,1.79q.77.55,1.47,1.12A45.47,45.47,0,0,1,104.64,19l.14.15c.44.45.84.89,1.24,1.33.6.68,1.16,1.34,1.65,2,0,0,0,0,0,0a30.26,30.26,0,0,1,4.39,7.24c5.7,9.82,7.88,27.47,7.88,27.47,0,7.6,0,14.21-3.32,22-.62,1.45-1.34,2.93-2.12,4.4C110,92,103.21,100.27,96.26,105.06c-11,7.57-23.61,9.88-29.24,10.56-1.87.22-3,.27-3,.27h-.32c-2,0-13.12-.09-21.57-2.35-5-1.33-6.33-1.22-6.52-.83h0a.24.24,0,0,0,0,.14,1.13,1.13,0,0,0,.35.54,2.71,2.71,0,0,0,.25.22,30.32,30.32,0,0,0,12.72,4.78c33,4.83,50.47-9.33,50.47-9.33,10.85-7.54,21.6-22.42,24.46-35.91S124.6,48.7,121.1,38Z" fill="#5180bd"/><path d="M106.58,55.52c-.2-.34-1.15-2.68-1.4-3.34a105,105,0,0,0-7.52-14.1c-4.77-7.58-12.12-15.2-15.48-18.57A38.76,38.76,0,0,0,68.63,10.7c-1.8.74,2.14,3.42,2.14,3.42l4.36,3.71s3.1,2.49,11.4,11l.71.74C95.11,37.86,99.62,47.78,101.59,51c1.37,2.23,2,5.87,2.59,6.6C106,59.81,106.58,55.52,106.58,55.52Z" fill="#5180bd"/><path d="M107.91,63.43c-.65-4.45-1.33-7.9-1.33-7.9l-1.39,1.11L104,53l.18,4.48a103.71,103.71,0,0,1,.11,40.15c0,.1,0,.19-.06.27a1.06,1.06,0,0,0,0,.17.17.17,0,0,0,0,.05c.71-.78,1.22-.71,1.5-1.51a5.63,5.63,0,0,0,1.17-1.53C109.94,85.9,109.16,72,107.91,63.43Z" fill="#5180bd"/><path d="M60.16,132.78c-2.1-1.26-1.51,1.36-1.51,1.36s-.43,1.66,1.29,1.36,2.32-1.47.22-2.72" fill="#9bb535"/><path d="M65.42,138.71c-2.1-1.26-1.51,1.36-1.51,1.36s-.44,1.66,1.29,1.36,2.32-1.47.22-2.72" fill="#9bb535"/><path d="M49.85,135.15c-2.1-1.25-1.52,1.36-1.52,1.36s-.43,1.66,1.29,1.37,2.33-1.48.23-2.73" fill="#9bb535"/><path d="M54.63,138.72c-2.1-1.26-1.51,1.36-1.51,1.36s-.44,1.66,1.29,1.37,2.32-1.48.22-2.73" fill="#9bb535"/><path d="M40.18,132.59c-2.09-1.25-1.5,1.37-1.5,1.37s-.45,1.66,1.28,1.36,2.32-1.47.22-2.73" fill="#9bb535"/><path d="M42.1,138.72c-2.1-1.25-1.51,1.36-1.51,1.36s-.44,1.66,1.29,1.36,2.32-1.48.22-2.73" fill="#9bb535"/><path d="M33,136.33c-2.1-1.25-1.51,1.36-1.51,1.36s-.45,1.66,1.29,1.36,2.32-1.48.22-2.73" fill="#9bb535"/><path d="M30.45,131.24c-2.1-1.25-1.51,1.37-1.51,1.37s-.43,1.65,1.29,1.36,2.32-1.47.22-2.72" fill="#9bb535"/><path d="M21,128.56c-2.1-1.25-1.51,1.36-1.51,1.36s-.44,1.66,1.29,1.36,2.32-1.47.22-2.73" fill="#9bb535"/><path d="M12.93,121.79c-2.09-1.26-1.51,1.36-1.51,1.36s-.44,1.66,1.29,1.36,2.32-1.47.22-2.72" fill="#9bb535"/><path d="M15,129.69c-2.11-1.25-1.51,1.36-1.51,1.36s-.44,1.66,1.29,1.37,2.32-1.48.22-2.73" fill="#9bb535"/><path d="M23.93,133.61c-2.1-1.26-1.51,1.36-1.51,1.36s-.44,1.66,1.29,1.36,2.32-1.47.22-2.72" fill="#9bb535"/><path d="M70.26,132.59c-2.1-1.25-1.51,1.37-1.51,1.37s-.44,1.66,1.29,1.36,2.32-1.47.22-2.73" fill="#9bb535"/><path d="M72.63,136.71c-2.1-1.26-1.52,1.36-1.52,1.36s-.44,1.66,1.29,1.36,2.32-1.47.22-2.72" fill="#9bb535"/><path d="M77.61,131.25c-2.1-1.25-1.51,1.37-1.51,1.37s-.44,1.66,1.3,1.37,2.32-1.47.21-2.73" fill="#9bb535"/><path d="M87.76,119.77a20.92,20.92,0,0,0-5.23,1.3c-1.82.71-5.45,1.9-5.85,2S64.8,127,53.37,126.88a41.94,41.94,0,0,1-11.52-1,66.31,66.31,0,0,1-8.34-2.29c-2.88-.81-11.51-4.93-12.51-5.51s-6.89-2.95-8-2.9-1.86,0-1.88.69,1.42,2,1.68,2.09,14.3,8.22,21.94,10.15c12.41,3.11,16.81,3.16,30.3,1.22,5.23-.75,14.54-3.84,14.54-3.84s5.45-1.84,7.68-2.27c0,0,1.9-.95,1.67-2.2S88.07,119.75,87.76,119.77Z" fill="#9bb535"/><path d="M88.83,126.4a1.26,1.26,0,0,1,1.12-1.24c1.09-.11.94,1.11.94,1.11A17.41,17.41,0,0,1,88.22,135a25,25,0,0,1-6.73,7,37.25,37.25,0,0,1-11.87,5.31c-6.05,1.33-4.51,1.27-15.48,2,0,0-1.37,0-1-.19,0,0,4.53-.83,8-1.3a73.92,73.92,0,0,0,13.77-4c1.8-.91,6.6-1.82,11.88-9.89C86.73,134,88.62,131.57,88.83,126.4Z" fill="#9bb535"/></svg>